<svg xmlns="http://www.w3.org/2000/svg" viewBox="0 0 24 24"><path d="M12 0a12 12 0 1012 12A12.013 12.013 0 0012 0zm10 12a9.938 9.938 0 01-1.662 5.508l-1.192-1.193a.5.5 0 01-.146-.353V15a3 3 0 00-3-3h-3a1 1 0 01-1-1v-.5a.5.5 0 01.5-.5A2.5 2.5 0 0015 7.5v-1a.5.5 0 01.5-.5h1.379a2.516 2.516 0 001.767-.732l.377-.377A9.969 9.969 0 0122 12zm-19.951.963l3.158 3.158A2.978 2.978 0 007.329 17H10a1 1 0 011 1v3.949a10.016 10.016 0 01-8.951-8.986zM13 21.949V18a3 3 0 00-3-3H7.329a1 1 0 01-.708-.293l-4.458-4.458A9.978 9.978 0 0117.456 3.63l-.224.224a.507.507 0 01-.353.146H15.5A2.5 2.5 0 0013 6.5v1a.5.5 0 01-.5.5 2.5 2.5 0 00-2.5 2.5v.5a3 3 0 003 3h3a1 1 0 011 1v.962a2.516 2.516 0 00.732 1.767l1.337 1.337A9.971 9.971 0 0113 21.949z"/></svg>